<?xml version="1.0" encoding="UTF-8"?>
<svg width="800" height="500" xmlns="http://www.w3.org/2000/svg">
    <!-- Traditional Programming -->
    <g transform="translate(50,50)">
        <!-- Container -->
        <rect x="0" y="0" width="700" height="150" fill="none" stroke="#333" stroke-width="1"/>
        <text x="350" y="40" text-anchor="middle" font-family="Arial" font-size="24">Traditional Programming</text>
        
        <!-- Rules -->
        <rect x="50" y="60" width="100" height="40" fill="white" stroke="#333"/>
        <text x="100" y="85" text-anchor="middle" font-family="Arial" font-size="16">Rules</text>
        
        <!-- Data -->
        <rect x="50" y="110" width="100" height="40" fill="white" stroke="#333"/>
        <text x="100" y="135" text-anchor="middle" font-family="Arial" font-size="16">Data</text>
        
        <!-- Process -->
        <rect x="300" y="85" width="120" height="40" fill="#4285F4" stroke="#333"/>
        <text x="360" y="110" text-anchor="middle" font-family="Arial" font-size="16" fill="white">Process</text>
        
        <!-- Answers -->
        <rect x="550" y="85" width="100" height="40" fill="white" stroke="#333"/>
        <text x="600" y="110" text-anchor="middle" font-family="Arial" font-size="16">Answers</text>
        
        <!-- Arrows -->
        <path d="M150,80 L300,105" stroke="#333" fill="none" marker-end="url(#arrowhead)" stroke-width="1"/>
        <path d="M150,130 L300,105" stroke="#333" fill="none" marker-end="url(#arrowhead)" stroke-width="1"/>
        <path d="M420,105 L550,105" stroke="#333" fill="none" marker-end="url(#arrowhead)" stroke-width="1"/>
    </g>
    
    <!-- Machine Learning -->
    <g transform="translate(50,250)">
        <!-- Container -->
        <rect x="0" y="0" width="700" height="150" fill="none" stroke="#333" stroke-width="1"/>
        <text x="350" y="40" text-anchor="middle" font-family="Arial" font-size="24">Machine Learning</text>
        
        <!-- Data -->
        <rect x="50" y="60" width="100" height="40" fill="white" stroke="#333"/>
        <text x="100" y="85" text-anchor="middle" font-family="Arial" font-size="16">Data</text>
        
        <!-- Answers -->
        <rect x="50" y="110" width="100" height="40" fill="white" stroke="#333"/>
        <text x="100" y="135" text-anchor="middle" font-family="Arial" font-size="16">Answers</text>
        
        <!-- ML Process -->
        <rect x="300" y="85" width="120" height="40" fill="#DB8D00" stroke="#333"/>
        <text x="360" y="110" text-anchor="middle" font-family="Arial" font-size="16" fill="white">ML Process</text>
        
        <!-- Rules -->
        <rect x="550" y="85" width="100" height="40" fill="white" stroke="#333"/>
        <text x="600" y="110" text-anchor="middle" font-family="Arial" font-size="16">Rules</text>
        
        <!-- Arrows -->
        <path d="M150,80 L300,105" stroke="#333" fill="none" marker-end="url(#arrowhead)" stroke-width="1"/>
        <path d="M150,130 L300,105" stroke="#333" fill="none" marker-end="url(#arrowhead)" stroke-width="1"/>
        <path d="M420,105 L550,105" stroke="#333" fill="none" marker-end="url(#arrowhead)" stroke-width="1"/>
    </g>
    
    <!-- Arrow definitions -->
    <defs>
        <marker id="arrowhead" markerWidth="10" markerHeight="7" refX="9" refY="3.5" orient="auto">
            <polygon points="0 0, 10 3.5, 0 7" fill="#333"/>
        </marker>
    </defs>
</svg>
