<?xml version="1.0" encoding="UTF-8"?>
<svg width="600" height="400" xmlns="http://www.w3.org/2000/svg">
    <!-- Traditional Programming -->
    <g transform="translate(50,50)">
        <!-- Container -->
        <rect x="0" y="0" width="500" height="120" fill="none" stroke="#333" stroke-width="1"/>
        <text x="250" y="30" text-anchor="middle" font-family="Arial" font-size="16">Traditional Programming</text>
        
        <!-- Rules -->
        <rect x="20" y="50" width="80" height="40" fill="white" stroke="#333"/>
        <text x="60" y="75" text-anchor="middle" font-family="Arial" font-size="14">Rules</text>
        
        <!-- Data -->
        <rect x="20" y="100" width="80" height="40" fill="white" stroke="#333"/>
        <text x="60" y="125" text-anchor="middle" font-family="Arial" font-size="14">Data</text>
        
        <!-- Process -->
        <rect x="160" y="75" width="100" height="40" fill="#4285F4" stroke="#333"/>
        <text x="210" y="100" text-anchor="middle" font-family="Arial" font-size="14" fill="white">Process</text>
        
        <!-- Answers -->
        <rect x="320" y="75" width="80" height="40" fill="white" stroke="#333"/>
        <text x="360" y="100" text-anchor="middle" font-family="Arial" font-size="14">Answers</text>
        
        <!-- Arrows -->
        <path d="M100,70 L160,95" stroke="#333" fill="none" marker-end="url(#arrowhead)"/>
        <path d="M100,120 L160,95" stroke="#333" fill="none" marker-end="url(#arrowhead)"/>
        <path d="M260,95 L320,95" stroke="#333" fill="none" marker-end="url(#arrowhead)"/>
    </g>
    
    <!-- Machine Learning -->
    <g transform="translate(50,200)">
        <!-- Container -->
        <rect x="0" y="0" width="500" height="120" fill="none" stroke="#333" stroke-width="1"/>
        <text x="250" y="30" text-anchor="middle" font-family="Arial" font-size="16">Machine Learning</text>
        
        <!-- Data -->
        <rect x="20" y="50" width="80" height="40" fill="white" stroke="#333"/>
        <text x="60" y="75" text-anchor="middle" font-family="Arial" font-size="14">Data</text>
        
        <!-- Answers -->
        <rect x="20" y="100" width="80" height="40" fill="white" stroke="#333"/>
        <text x="60" y="125" text-anchor="middle" font-family="Arial" font-size="14">Answers</text>
        
        <!-- ML Process -->
        <rect x="160" y="75" width="100" height="40" fill="#DB8D00" stroke="#333"/>
        <text x="210" y="100" text-anchor="middle" font-family="Arial" font-size="14" fill="white">ML Process</text>
        
        <!-- Rules -->
        <rect x="320" y="75" width="80" height="40" fill="white" stroke="#333"/>
        <text x="360" y="100" text-anchor="middle" font-family="Arial" font-size="14">Rules</text>
        
        <!-- Arrows -->
        <path d="M100,70 L160,95" stroke="#333" fill="none" marker-end="url(#arrowhead)"/>
        <path d="M100,120 L160,95" stroke="#333" fill="none" marker-end="url(#arrowhead)"/>
        <path d="M260,95 L320,95" stroke="#333" fill="none" marker-end="url(#arrowhead)"/>
    </g>
    
    <!-- Arrow definitions -->
    <defs>
        <marker id="arrowhead" markerWidth="10" markerHeight="7" refX="9" refY="3.5" orient="auto">
            <polygon points="0 0, 10 3.5, 0 7" fill="#333"/>
        </marker>
    </defs>
</svg>
