<?xml version="1.0" encoding="UTF-8"?>
<svg width="800" height="400" xmlns="http://www.w3.org/2000/svg">
    <!-- Traditional Programming -->
    <g transform="translate(50,50)">
        <rect x="0" y="0" width="300" height="150" fill="#f8f9fa" stroke="#333"/>
        <text x="150" y="30" text-anchor="middle" font-family="Arial" font-size="16">Traditional Programming</text>
        
        <!-- Input boxes -->
        <rect x="20" y="50" width="80" height="30" fill="white" stroke="#333"/>
        <text x="60" y="70" text-anchor="middle" font-family="Arial" font-size="14">Rules</text>
        
        <rect x="20" y="100" width="80" height="30" fill="white" stroke="#333"/>
        <text x="60" y="120" text-anchor="middle" font-family="Arial" font-size="14">Data</text>
        
        <!-- Process box -->
        <rect x="140" y="75" width="100" height="40" fill="#4285F4" stroke="#333"/>
        <text x="190" y="100" text-anchor="middle" font-family="Arial" font-size="14" fill="white">Process</text>
        
        <!-- Output box -->
        <rect x="200" y="75" width="80" height="30" fill="white" stroke="#333"/>
        <text x="240" y="95" text-anchor="middle" font-family="Arial" font-size="14">Answers</text>
        
        <!-- Arrows -->
        <path d="M100,65 L140,95" stroke="#333" fill="none" marker-end="url(#arrowhead)"/>
        <path d="M100,115 L140,95" stroke="#333" fill="none" marker-end="url(#arrowhead)"/>
        <path d="M240,95 L280,95" stroke="#333" fill="none" marker-end="url(#arrowhead)"/>
    </g>
    
    <!-- Machine Learning -->
    <g transform="translate(50,250)">
        <rect x="0" y="0" width="300" height="150" fill="#f8f9fa" stroke="#333"/>
        <text x="150" y="30" text-anchor="middle" font-family="Arial" font-size="16">Machine Learning</text>
        
        <!-- Input boxes -->
        <rect x="20" y="50" width="80" height="30" fill="white" stroke="#333"/>
        <text x="60" y="70" text-anchor="middle" font-family="Arial" font-size="14">Data</text>
        
        <rect x="20" y="100" width="80" height="30" fill="white" stroke="#333"/>
        <text x="60" y="120" text-anchor="middle" font-family="Arial" font-size="14">Answers</text>
        
        <!-- Process box -->
        <rect x="140" y="75" width="100" height="40" fill="#DB8D00" stroke="#333"/>
        <text x="190" y="100" text-anchor="middle" font-family="Arial" font-size="14" fill="white">ML Process</text>
        
        <!-- Output box -->
        <rect x="200" y="75" width="80" height="30" fill="white" stroke="#333"/>
        <text x="240" y="95" text-anchor="middle" font-family="Arial" font-size="14">Rules</text>
        
        <!-- Arrows -->
        <path d="M100,65 L140,95" stroke="#333" fill="none" marker-end="url(#arrowhead)"/>
        <path d="M100,115 L140,95" stroke="#333" fill="none" marker-end="url(#arrowhead)"/>
        <path d="M240,95 L280,95" stroke="#333" fill="none" marker-end="url(#arrowhead)"/>
    </g>
    
    <!-- Arrow definitions -->
    <defs>
        <marker id="arrowhead" markerWidth="10" markerHeight="7" refX="9" refY="3.5" orient="auto">
            <polygon points="0 0, 10 3.5, 0 7" fill="#333"/>
        </marker>
    </defs>
</svg>
